<svg width="20" height="20" viewBox="0 0 20 20" fill="none" xmlns="http://www.w3.org/2000/svg">
    <path d="M7.667 10a2.333 2.333 0 1 1 4.667 0 2.333 2.333 0 0 1-4.667 0zm-1.261 0a3.594 3.594 0 1 0 7.189 0 3.594 3.594 0 0 0-7.19 0zm6.491-3.737a.84.84 0 1 0 1.68 0 .84.84 0 0 0-1.68 0zm-5.725 9.435c-.683-.031-1.054-.145-1.3-.241a2.177 2.177 0 0 1-.805-.524 2.164 2.164 0 0 1-.524-.804c-.096-.247-.21-.618-.24-1.3-.035-.738-.041-.96-.041-2.829 0-1.87.007-2.09.04-2.829.031-.682.146-1.053.241-1.3.127-.327.279-.56.524-.805s.478-.397.805-.524c.246-.096.617-.21 1.3-.24.738-.034.96-.041 2.828-.041 1.87 0 2.09.007 2.83.04.682.032 1.052.146 1.3.241.326.127.559.28.804.524.245.245.397.478.524.805.096.247.21.618.24 1.3.035.739.042.96.042 2.829 0 1.869-.007 2.09-.041 2.829-.031.682-.145 1.053-.241 1.3-.127.327-.279.56-.524.804a2.173 2.173 0 0 1-.805.524c-.246.096-.617.21-1.3.24-.738.035-.96.042-2.829.042-1.869 0-2.09-.007-2.828-.041zM7.114 3.042c-.745.034-1.254.153-1.699.326-.46.178-.85.418-1.24.807-.389.389-.629.78-.807 1.24-.173.445-.292.954-.326 1.699C3.008 7.86 3 8.1 3 10c0 1.901.008 2.14.042 2.886.034.745.153 1.254.326 1.7.178.46.417.85.807 1.239.389.39.78.628 1.24.808.446.172.954.29 1.7.325.746.034.984.042 2.885.042 1.902 0 2.14-.008 2.886-.042s1.255-.152 1.7-.325c.46-.18.85-.419 1.24-.808.389-.389.628-.78.807-1.24.173-.445.292-.954.325-1.7.034-.746.042-.984.042-2.885 0-1.901-.008-2.14-.042-2.886-.034-.745-.152-1.254-.325-1.7-.18-.46-.418-.85-.807-1.239a3.434 3.434 0 0 0-1.24-.807c-.446-.173-.954-.292-1.7-.326-.745-.034-.984-.042-2.885-.042-1.902 0-2.14.008-2.887.042z" fill="#666"/>
</svg>
