<svg width="20" height="20" viewBox="0 0 20 20" fill="none" xmlns="http://www.w3.org/2000/svg">
    <path d="m10.354 15.984-3.282-.065c-1.063-.023-2.128.023-3.17-.212-1.586-.351-1.698-2.073-1.815-3.517-.162-2.03-.1-4.097.206-6.11.173-1.13.851-1.804 1.901-1.877 3.544-.266 7.111-.235 10.647-.11.373.011.75.073 1.118.144 1.817.346 1.861 2.296 1.98 3.939.117 1.659.067 3.326-.157 4.974-.18 1.365-.525 2.509-1.98 2.62-1.823.144-3.604.26-5.432.223 0-.009-.01-.009-.015-.009zm-1.93-3.454c1.374-.855 2.722-1.696 4.088-2.545-1.377-.856-2.722-1.696-4.087-2.546v5.091z" fill="#666"/>
</svg>
